# xmcd CD database file
#
# Track frame offsets:
#	150
#	12464
#	30540
#	48532
#	66771
#	82657
#	101991
#	122304
#	141085
#	157243
#	174269
#	192353
#	210243
#	233644
#	257860
#
# Disc length: 3719 seconds
#
# Revision: 0
# Processed by: cddbd v1.5.1PL0 Copyright (c) Steve Scherf et al.
# Submitted via: CDex 1.50Beta7
#
DISCID=c30e850f
DTITLE=Joss Stone - Mind, Body, and Soul
DYEAR=2004
DGENRE=Blues
TTITLE0=Right to be Wrong
TTITLE1=Jet Lag
TTITLE2=You had Me
TTITLE3=Spoiled
TTITLE4=Don't Cha Wanna Ride
TTITLE5=Less is More
TTITLE6=Security
TTITLE7=Young at Heart
TTITLE8=Snakes and Ladders
TTITLE9=Understand
TTITLE10=Don't Know How
TTITLE11=Torn and Tattered
TTITLE12=Killing Time
TTITLE13=Sleep Like a Child
TTITLE14=Hidden?
EXTD=YEAR: 2004
EXTT0=
EXTT1=
EXTT2=
EXTT3=
EXTT4=
EXTT5=
EXTT6=
EXTT7=
EXTT8=
EXTT9=
EXTT10=
EXTT11=
EXTT12=
EXTT13=
EXTT14=
PLAYORDER=
